<svg fill="none" viewBox="0 0 20 20" xmlns="http://www.w3.org/2000/svg">
    <!-- 원 부분 (초록색) -->
    <path clip-rule="evenodd" d="M6.267 3.455a3.066 3.066 0 0 0 1.745-.723 3.066 3.066 0 0 1 3.976 0 3.066 3.066 0 0 0 1.745.723 3.066 3.066 0 0 1 2.812 2.812c.051.643.304 1.254.723 1.745a3.066 3.066 0 0 1 0 3.976 3.066 3.066 0 0 0-.723 1.745 3.066 3.066 0 0 1-2.812 2.812 3.066 3.066 0 0 0-1.745.723 3.066 3.066 0 0 1-3.976 0 3.066 3.066 0 0 0-1.745-.723 3.066 3.066 0 0 1-2.812-2.812 3.066 3.066 0 0 0-.723-1.745 3.066 3.066 0 0 1 0-3.976 3.066 3.066 0 0 0 .723-1.745 3.066 3.066 0 0 1 2.812-2.812Zm7.44 5.252" fill="#41ad49" fill-rule="evenodd"></path>

    <!-- 체크 부분 (흰색) -->
    <path d="M9 10.586l-1.293-1.293a1 1 0 0 0-1.414 1.414l2 2a1 1 0 0 0 1.414 0l4-4a1 1 0 0 0-1.414-1.414l-3.293 3.293-2-2z" fill="#ffffff"></path>
</svg>
